<svg xmlns="http://www.w3.org/2000/svg" xmlns:xlink="http://www.w3.org/1999/xlink" viewBox="0,0,256,256" width="48px" height="48px" fill-rule="nonzero"><g fill-opacity="0" fill="#dddddd" fill-rule="nonzero" stroke="none" stroke-width="1" stroke-linecap="butt" stroke-linejoin="miter" stroke-miterlimit="10" stroke-dasharray="" stroke-dashoffset="0" font-family="none" font-weight="none" font-size="none" text-anchor="none" style="mix-blend-mode: normal"><path d="M0,256v-256h256v256z" id="bgRectangle"></path></g><g fill="#4338ca" fill-rule="nonzero" stroke="none" stroke-width="1" stroke-linecap="butt" stroke-linejoin="miter" stroke-miterlimit="10" stroke-dasharray="" stroke-dashoffset="0" font-family="none" font-weight="none" font-size="none" text-anchor="none" style="mix-blend-mode: normal"><g transform="scale(5.33333,5.33333)"><path d="M25,18.4c11,0 20,-2.4 20,-5.4c0,-1.1 -1.2,-2.1 -3.2,-2.9c0.8,0.5 1.2,1.1 1.2,1.7c0,2.6 -8.1,4.7 -18,4.7c-9.9,0 -18,-2.2 -18,-4.8c0,-0.6 0.4,-1.2 1.2,-1.7c-2,0.8 -3.2,1.9 -3.2,2.9c0,3 9,5.5 20,5.5z"></path><path d="M25,21c-8.8,0 -16.3,-1.6 -19.9,-4h-0.1c0,2.3 0.8,4.7 1.9,7.1c-5.9,4.1 -4.8,14.9 5.1,12.9c0.5,-0.1 0.5,-0.5 0,-0.6c-3.9,-0.5 -7.9,-5.3 -4.1,-10.3c2.3,4.4 5.5,8.8 7.2,12.9v0c0.7,1.7 4.8,3 9.9,3c5.1,0 9.2,-1.3 9.9,-3v0c3,-7 10.1,-15 10.1,-22h-0.1c-3.6,2.4 -11.1,4 -19.9,4zM18,9c0,0 -4.9,-0.4 -4.9,2.2c0,1.1 0.8,2.6 4.2,2.6c3,0 6.8,-3.7 11.9,-3.7c3.7,0 3.7,2.5 0.7,2.5c-2,0 -3,-0.8 -3,-0.8c-0.6,-0.4 -1.3,0.4 -1,1.1c0,0 0,1.1 4,1.1c4,0 4.6,-1.9 4.5,-2.6c-0.1,-1.4 -1.4,-2.7 -3.5,-3.1c-1.9,-0.3 -4,-0.5 -7,0.6c-3,1.1 -5.1,3.1 -7.1,3.1c-2,0 -3.6,-2.3 1.2,-2c2.3,0.2 1,-1 0,-1z"></path></g></g></svg>